<mxfile host="app.diagrams.net" modified="2022-06-08T00:44:06.391Z" agent="5.0 (Windows NT 10.0; Win64; x64) AppleWebKit/537.36 (KHTML, like Gecko) Chrome/102.0.5005.63 Safari/537.36 Edg/102.0.1245.33" etag="6OP8uY6UFVsOeQTl_QF6" version="19.0.1" type="github">
  <diagram id="kgpKYQtTHZ0yAKxKKP6v" name="Page-1">
    <mxGraphModel dx="1407" dy="571" grid="1" gridSize="10" guides="1" tooltips="1" connect="1" arrows="1" fold="1" page="1" pageScale="1" pageWidth="850" pageHeight="1100" math="0" shadow="0">
      <root>
        <mxCell id="0" />
        <mxCell id="1" parent="0" />
        <mxCell id="3nuBFxr9cyL0pnOWT2aG-1" value=":GUI" style="shape=umlLifeline;perimeter=lifelinePerimeter;container=1;collapsible=0;recursiveResize=0;rounded=0;shadow=0;strokeWidth=1;" parent="1" vertex="1">
          <mxGeometry x="120" y="80" width="100" height="300" as="geometry" />
        </mxCell>
        <mxCell id="3nuBFxr9cyL0pnOWT2aG-2" value="" style="points=[];perimeter=orthogonalPerimeter;rounded=0;shadow=0;strokeWidth=1;" parent="3nuBFxr9cyL0pnOWT2aG-1" vertex="1">
          <mxGeometry x="45" y="85" width="10" height="190" as="geometry" />
        </mxCell>
        <mxCell id="3nuBFxr9cyL0pnOWT2aG-5" value=":Eleve" style="shape=umlLifeline;perimeter=lifelinePerimeter;container=1;collapsible=0;recursiveResize=0;rounded=0;shadow=0;strokeWidth=1;" parent="1" vertex="1">
          <mxGeometry x="375" y="80" width="100" height="300" as="geometry" />
        </mxCell>
        <mxCell id="3nuBFxr9cyL0pnOWT2aG-6" value="" style="points=[];perimeter=orthogonalPerimeter;rounded=0;shadow=0;strokeWidth=1;" parent="3nuBFxr9cyL0pnOWT2aG-5" vertex="1">
          <mxGeometry x="45" y="105" width="10" height="160" as="geometry" />
        </mxCell>
        <mxCell id="P18yLKEyk5E9OTwKpfp2-1" value=":Questionnaire" style="shape=umlLifeline;perimeter=lifelinePerimeter;container=1;collapsible=0;recursiveResize=0;rounded=0;shadow=0;strokeWidth=1;" vertex="1" parent="1">
          <mxGeometry x="590" y="80" width="100" height="300" as="geometry" />
        </mxCell>
        <mxCell id="P18yLKEyk5E9OTwKpfp2-2" value="" style="points=[];perimeter=orthogonalPerimeter;rounded=0;shadow=0;strokeWidth=1;" vertex="1" parent="P18yLKEyk5E9OTwKpfp2-1">
          <mxGeometry x="45" y="170" width="10" height="190" as="geometry" />
        </mxCell>
        <mxCell id="P18yLKEyk5E9OTwKpfp2-5" value=":Classe" style="shape=umlLifeline;perimeter=lifelinePerimeter;container=1;collapsible=0;recursiveResize=0;rounded=0;shadow=0;strokeWidth=1;" vertex="1" parent="1">
          <mxGeometry x="790" y="80" width="100" height="300" as="geometry" />
        </mxCell>
        <mxCell id="P18yLKEyk5E9OTwKpfp2-6" value="" style="points=[];perimeter=orthogonalPerimeter;rounded=0;shadow=0;strokeWidth=1;" vertex="1" parent="P18yLKEyk5E9OTwKpfp2-5">
          <mxGeometry x="45" y="140" width="10" height="160" as="geometry" />
        </mxCell>
        <mxCell id="P18yLKEyk5E9OTwKpfp2-11" value="Actor" style="shape=umlActor;verticalLabelPosition=bottom;verticalAlign=top;html=1;outlineConnect=0;" vertex="1" parent="1">
          <mxGeometry x="30" y="60" width="30" height="60" as="geometry" />
        </mxCell>
        <mxCell id="P18yLKEyk5E9OTwKpfp2-12" value="" style="endArrow=none;dashed=1;html=1;rounded=0;" edge="1" parent="1">
          <mxGeometry width="50" height="50" relative="1" as="geometry">
            <mxPoint x="45" y="140" as="sourcePoint" />
            <mxPoint x="50" y="400" as="targetPoint" />
          </mxGeometry>
        </mxCell>
        <mxCell id="P18yLKEyk5E9OTwKpfp2-14" value=":ReponseEleve" style="shape=umlLifeline;perimeter=lifelinePerimeter;container=1;collapsible=0;recursiveResize=0;rounded=0;shadow=0;strokeWidth=1;" vertex="1" parent="1">
          <mxGeometry x="920" y="80" width="100" height="300" as="geometry" />
        </mxCell>
        <mxCell id="P18yLKEyk5E9OTwKpfp2-15" value="" style="points=[];perimeter=orthogonalPerimeter;rounded=0;shadow=0;strokeWidth=1;" vertex="1" parent="P18yLKEyk5E9OTwKpfp2-14">
          <mxGeometry x="45" y="150" width="10" height="160" as="geometry" />
        </mxCell>
        <mxCell id="P18yLKEyk5E9OTwKpfp2-16" value="" style="endArrow=classic;html=1;rounded=0;verticalAlign=bottom;entryX=-0.059;entryY=0.003;entryDx=0;entryDy=0;entryPerimeter=0;" edge="1" parent="1" target="3nuBFxr9cyL0pnOWT2aG-2">
          <mxGeometry width="50" height="50" relative="1" as="geometry">
            <mxPoint x="50" y="166" as="sourcePoint" />
            <mxPoint x="160" y="170" as="targetPoint" />
          </mxGeometry>
        </mxCell>
        <mxCell id="P18yLKEyk5E9OTwKpfp2-20" value="Entre identifiants" style="edgeLabel;html=1;align=center;verticalAlign=middle;resizable=0;points=[];" vertex="1" connectable="0" parent="P18yLKEyk5E9OTwKpfp2-16">
          <mxGeometry x="-0.2972" y="2" relative="1" as="geometry">
            <mxPoint x="10" y="-8" as="offset" />
          </mxGeometry>
        </mxCell>
        <mxCell id="P18yLKEyk5E9OTwKpfp2-25" value="DB" style="shape=umlLifeline;perimeter=lifelinePerimeter;container=1;collapsible=0;recursiveResize=0;rounded=0;shadow=0;strokeWidth=1;" vertex="1" parent="1">
          <mxGeometry x="1080" y="80" width="100" height="300" as="geometry" />
        </mxCell>
        <mxCell id="P18yLKEyk5E9OTwKpfp2-26" value="" style="points=[];perimeter=orthogonalPerimeter;rounded=0;shadow=0;strokeWidth=1;" vertex="1" parent="P18yLKEyk5E9OTwKpfp2-25">
          <mxGeometry x="45" y="85" width="10" height="20" as="geometry" />
        </mxCell>
        <mxCell id="P18yLKEyk5E9OTwKpfp2-27" value="Verification des identifiants et fonctions" style="endArrow=classic;html=1;entryX=-0.12;entryY=0.053;entryDx=0;entryDy=0;entryPerimeter=0;exitX=1.107;exitY=0.003;exitDx=0;exitDy=0;exitPerimeter=0;strokeColor=default;rounded=0;verticalAlign=bottom;" edge="1" parent="1" source="3nuBFxr9cyL0pnOWT2aG-2" target="P18yLKEyk5E9OTwKpfp2-26">
          <mxGeometry width="50" height="50" relative="1" as="geometry">
            <mxPoint x="170" y="150" as="sourcePoint" />
            <mxPoint x="360" y="150" as="targetPoint" />
          </mxGeometry>
        </mxCell>
        <mxCell id="P18yLKEyk5E9OTwKpfp2-28" value="" style="endArrow=classic;html=1;rounded=0;" edge="1" parent="1">
          <mxGeometry width="50" height="50" relative="1" as="geometry">
            <mxPoint x="485" y="450" as="sourcePoint" />
            <mxPoint x="640" y="450" as="targetPoint" />
          </mxGeometry>
        </mxCell>
        <mxCell id="P18yLKEyk5E9OTwKpfp2-30" value="" style="endArrow=none;html=1;rounded=0;startArrow=classic;startFill=1;endFill=0;dashed=1;entryX=-0.053;entryY=1.001;entryDx=0;entryDy=0;entryPerimeter=0;exitX=1.161;exitY=-0.001;exitDx=0;exitDy=0;exitPerimeter=0;" edge="1" parent="1" source="3nuBFxr9cyL0pnOWT2aG-6" target="P18yLKEyk5E9OTwKpfp2-26">
          <mxGeometry width="50" height="50" relative="1" as="geometry">
            <mxPoint x="700" y="190" as="sourcePoint" />
            <mxPoint x="1125" y="190" as="targetPoint" />
          </mxGeometry>
        </mxCell>
      </root>
    </mxGraphModel>
  </diagram>
</mxfile>
